<svg width="111" height="32" viewBox="0 0 111 32" fill="none" xmlns="http://www.w3.org/2000/svg">
<g clip-path="url(#clip0_1244_2151)">
<path d="M109.223 4.48643L103.51 6.22273V0H4.03718L0 4.37716V32H99.4665L103.51 27.6289V21.558L109.253 23.1364C109.439 23.1929 109.635 23.204 109.826 23.1688C110.017 23.1337 110.197 23.0533 110.35 22.9344C110.503 22.8154 110.626 22.6615 110.708 22.4854C110.789 22.3093 110.828 22.1161 110.819 21.9222V5.67027C110.824 5.47537 110.782 5.28212 110.697 5.10685C110.612 4.93158 110.485 4.77945 110.329 4.66333C110.172 4.54721 109.99 4.47052 109.797 4.43972C109.605 4.40893 109.408 4.42495 109.223 4.48643ZM101.937 26.0565H5.60349V1.57238H101.937V26.0565Z" fill="#3351FF"/>
<path d="M14.8128 17.3327C14.2906 17.345 13.7713 17.2517 13.286 17.0585C12.8007 16.8652 12.3594 16.5759 11.9887 16.208C11.6179 15.8401 11.3253 15.401 11.1283 14.9173C10.9313 14.4335 10.8341 13.9149 10.8424 13.3926C10.8332 12.8698 10.9299 12.3506 11.1265 11.8661C11.3231 11.3816 11.6156 10.9418 11.9865 10.5732C12.3573 10.2046 12.7989 9.91483 13.2845 9.7212C13.7702 9.52757 14.2901 9.43413 14.8128 9.44648C15.7467 9.41546 16.6598 9.72631 17.3808 10.3207C18.0602 10.9043 18.5276 11.6962 18.7103 12.573H16.3548C16.2338 12.2637 16.0214 11.9986 15.7459 11.8131C15.4704 11.6277 15.1449 11.5306 14.8128 11.5349C14.5861 11.5267 14.3603 11.5675 14.1507 11.6544C13.9412 11.7414 13.7529 11.8725 13.5986 12.0388C13.2692 12.4221 13.1016 12.9184 13.1311 13.423C13.1016 13.9275 13.2692 14.4238 13.5986 14.8071C13.7529 14.9734 13.9412 15.1045 14.1507 15.1915C14.3603 15.2785 14.5861 15.3192 14.8128 15.311C15.147 15.3139 15.4741 15.2142 15.7499 15.0253C16.0256 14.8364 16.2368 14.5674 16.3548 14.2547H18.7103C18.5259 15.1309 18.0588 15.9222 17.3808 16.507C16.653 17.084 15.7405 17.3773 14.8128 17.3327Z" fill="#3351FF"/>
<path d="M33.4634 17.3326C32.9862 17.3393 32.5136 17.2386 32.0807 17.0378C31.6477 16.8371 31.2654 16.5415 30.9622 16.173C30.2864 15.4064 29.9225 14.4143 29.9423 13.3925C29.9213 12.3706 30.2854 11.3781 30.9622 10.612C31.2638 10.2443 31.6439 9.94882 32.0746 9.74713C32.5053 9.54544 32.9757 9.44268 33.4513 9.44641C33.8414 9.43069 34.2299 9.50588 34.586 9.66602C34.9421 9.82617 35.2561 10.0669 35.5033 10.3692V9.61639H37.7859V17.1687H35.5154V16.3916C35.2704 16.6976 34.9573 16.942 34.601 17.1054C34.2447 17.2688 33.8551 17.3466 33.4634 17.3326ZM32.7288 14.7342C32.8907 14.9015 33.0846 15.0345 33.2989 15.1253C33.5132 15.2161 33.7436 15.2629 33.9764 15.2629C34.2092 15.2629 34.4396 15.2161 34.6539 15.1253C34.8682 15.0345 35.0621 14.9015 35.224 14.7342C35.5464 14.3633 35.7156 13.8836 35.6975 13.3925C35.7132 12.8978 35.5395 12.4158 35.2118 12.0448C35.05 11.8775 34.8561 11.7445 34.6418 11.6537C34.4274 11.5629 34.197 11.5161 33.9643 11.5161C33.7315 11.5161 33.5011 11.5629 33.2868 11.6537C33.0725 11.7445 32.8786 11.8775 32.7167 12.0448C32.3934 12.4176 32.2241 12.8994 32.2432 13.3925C32.2284 13.8853 32.4021 14.3651 32.7288 14.7342Z" fill="#3351FF"/>
<path d="M40.8024 8.58428C40.4277 8.58113 40.0691 8.43128 39.8035 8.16685C39.538 7.90243 39.3866 7.54447 39.3818 7.16974C39.385 6.79396 39.5357 6.43446 39.8014 6.16873C40.0672 5.903 40.4267 5.75231 40.8024 5.74914C41.0867 5.74232 41.3665 5.82134 41.6052 5.97589C41.8438 6.13044 42.0304 6.35334 42.1405 6.61551C42.2507 6.87769 42.2792 7.16697 42.2224 7.44561C42.1657 7.72425 42.0263 7.97931 41.8224 8.17752C41.6895 8.3119 41.5304 8.41738 41.3549 8.48738C41.1794 8.55737 40.9913 8.59036 40.8024 8.58428ZM39.6732 17.1686V9.61634H41.9498V17.1686H39.6732Z" fill="#3351FF"/>
<path d="M43.8262 17.1686V9.61635H46.1392V10.3874C46.3804 10.0648 46.6999 9.8091 47.0674 9.64444C47.435 9.47978 47.8385 9.41161 48.2398 9.44637C48.6446 9.42619 49.0487 9.49885 49.4212 9.65878C49.7937 9.81872 50.1247 10.0617 50.3889 10.3692C50.932 11.0586 51.2079 11.9209 51.166 12.7975V17.1625H48.859V13.1921C48.859 12.0751 48.4462 11.5166 47.6448 11.5166C47.4351 11.5112 47.2268 11.5532 47.0355 11.6394C46.8442 11.7255 46.6748 11.8537 46.5399 12.0144C46.2375 12.4462 46.0958 12.9703 46.1392 13.4957V17.1686H43.8262Z" fill="#3351FF"/>
<path d="M53.6726 17.1687V11.5955H52.167V9.61641H53.6726V8.78468C53.6532 8.3745 53.7211 7.96488 53.8718 7.5829C54.0225 7.20091 54.2526 6.85526 54.5468 6.56879C55.1325 6.01976 55.9117 5.72507 56.7141 5.74921C57.1729 5.73875 57.6309 5.79395 58.074 5.91312V7.92261C57.8124 7.82399 57.5338 7.77859 57.2545 7.78905C56.8965 7.75449 56.5392 7.86125 56.2588 8.08652C56.0327 8.36192 55.9237 8.71508 55.9553 9.07002V9.61641H58.074V11.5955H55.9553V17.1687H53.6726Z" fill="#3351FF"/>
<path d="M59.2344 17.1688V9.61649H61.5171V10.7457C61.6485 10.393 61.8861 10.0897 62.197 9.87755C62.5224 9.64435 62.9137 9.521 63.3141 9.52543C63.5638 9.52392 63.8128 9.55452 64.0547 9.61649V11.9235C63.7282 11.8117 63.386 11.7522 63.0409 11.7474C62.8271 11.7362 62.6137 11.776 62.4184 11.8636C62.2231 11.9513 62.0515 12.0841 61.9177 12.2513C61.6355 12.6377 61.4941 13.109 61.5171 13.5869V17.1688H59.2344Z" fill="#3351FF"/>
<path d="M68.6012 17.3327C68.0709 17.3515 67.5422 17.2622 67.0475 17.0702C66.5528 16.8781 66.1023 16.5874 65.7236 16.2156C65.3492 15.8423 65.0561 15.3955 64.8628 14.9034C64.6695 14.4113 64.5802 13.8845 64.6005 13.3562C64.5853 12.8341 64.6789 12.3146 64.8754 11.8307C65.0719 11.3468 65.367 10.9091 65.7418 10.5454C66.1207 10.1803 66.569 9.89493 67.0602 9.70618C67.5513 9.51744 68.0753 9.42914 68.6012 9.44651C69.137 9.44404 69.6685 9.54291 70.1675 9.73792C70.6506 9.92518 71.0921 10.2057 71.4667 10.5636C71.8632 10.9602 72.1642 11.4419 72.347 11.972C72.5678 12.597 72.6667 13.2586 72.6384 13.9208H66.8224C66.8381 14.1204 66.894 14.3148 66.9869 14.4922C67.0797 14.6696 67.2076 14.8263 67.3627 14.9529C67.75 15.2532 68.2335 15.4021 68.7226 15.3718C69.0365 15.3778 69.347 15.3069 69.6272 15.1653C69.8626 15.0664 70.0559 14.8881 70.1736 14.6615H72.5595C72.319 15.4561 71.805 16.1401 71.1085 16.592C70.3696 17.0925 69.4935 17.3513 68.6012 17.3327ZM68.5405 11.2617C68.1529 11.2474 67.7719 11.3651 67.4599 11.5956C67.1652 11.8107 66.9514 12.1186 66.8528 12.4698H70.0886C70.0074 12.0994 69.7909 11.7725 69.4815 11.5531C69.2032 11.3659 68.876 11.2646 68.5405 11.2617Z" fill="#3351FF"/>
<path d="M74.0654 17.1687V9.61643H76.342V10.3874C76.584 10.0657 76.9036 9.81068 77.271 9.64611C77.6383 9.48154 78.0415 9.41284 78.4426 9.44645C78.8483 9.4267 79.2532 9.49952 79.6266 9.6594C79.9999 9.81927 80.3321 10.062 80.5978 10.3692C81.1409 11.0586 81.4168 11.921 81.3749 12.7976V17.1626H79.0922V13.1922C79.0922 12.0752 78.6874 11.5166 77.878 11.5166C77.6682 11.5108 77.4598 11.5526 77.2684 11.6388C77.0771 11.725 76.9077 11.8535 76.7731 12.0145C76.4621 12.4431 76.3117 12.9675 76.3481 13.4958V17.1687H74.0654Z" fill="#3351FF"/>
<path d="M86.9114 17.2596C86.119 17.2934 85.3423 17.0316 84.7319 16.5251C84.4393 16.2588 84.2105 15.9301 84.0623 15.5633C83.9141 15.1965 83.8504 14.8011 83.8759 14.4063V11.5954H82.3643V9.61631H83.8759V7.51576H86.1586V9.61631H88.2713V11.5954H86.1586V13.9631C86.141 14.139 86.1587 14.3167 86.2109 14.4856C86.263 14.6545 86.3484 14.8113 86.4622 14.9466C86.7354 15.1724 87.0865 15.2814 87.4396 15.2502C87.7228 15.2585 88.005 15.2132 88.2713 15.1166V17.1382C87.8262 17.2441 87.3682 17.285 86.9114 17.2596Z" fill="#3351FF"/>
<path d="M92.0665 17.1686L88.7578 9.61629H91.2773L93.0986 14.2059L94.9198 9.61629H97.4575L94.1488 17.1686H92.0665Z" fill="#3351FF"/>
<path d="M21.1816 8.49933C21.3706 8.50248 21.5583 8.46756 21.7336 8.39663C21.9088 8.32571 22.0679 8.22024 22.2015 8.0865C22.3366 7.95612 22.4435 7.7994 22.5155 7.62606C22.5876 7.45271 22.6233 7.26643 22.6204 7.07873C22.6247 6.89082 22.5897 6.7041 22.5176 6.53054C22.4454 6.35698 22.3378 6.20043 22.2015 6.07095C22.0691 5.93526 21.9103 5.8281 21.7349 5.75607C21.5595 5.68403 21.3712 5.64863 21.1816 5.65205C20.9959 5.65052 20.8118 5.68688 20.6406 5.7589C20.4694 5.83093 20.3147 5.93711 20.186 6.07095C20.0485 6.1985 19.9396 6.35369 19.8663 6.52634C19.7931 6.69898 19.7572 6.88516 19.761 7.07265C19.7579 7.26095 19.794 7.44784 19.8672 7.62137C19.9404 7.7949 20.049 7.95125 20.186 8.08043C20.3154 8.21343 20.4702 8.31905 20.6413 8.39101C20.8123 8.46297 20.9961 8.49981 21.1816 8.49933Z" fill="#3351FF"/>
<path d="M27.4894 8.49933C27.6829 8.50501 27.8755 8.47075 28.0551 8.39867C28.2348 8.3266 28.3977 8.21827 28.5336 8.08043C28.6667 7.94888 28.7718 7.79182 28.8428 7.61865C28.9137 7.44548 28.949 7.25977 28.9464 7.07265C28.9495 6.88636 28.9145 6.70139 28.8435 6.52912C28.7726 6.35685 28.6671 6.20093 28.5336 6.07095C28.4011 5.93526 28.2423 5.8281 28.0669 5.75607C27.8915 5.68403 27.7032 5.64863 27.5137 5.65205C27.3279 5.65052 27.1439 5.68688 26.9727 5.7589C26.8015 5.83093 26.6468 5.93711 26.518 6.07095C26.3805 6.1985 26.2716 6.35369 26.1984 6.52634C26.1251 6.69898 26.0892 6.88516 26.093 7.07265C26.0899 7.26095 26.1261 7.44784 26.1992 7.62137C26.2724 7.7949 26.381 7.95125 26.518 8.08043C26.7736 8.34316 27.1229 8.49381 27.4894 8.49933Z" fill="#3351FF"/>
<path d="M31.2347 22.7843L28.6363 18.2797C28.6363 16.5434 28.6363 16.0213 28.6363 14.285C28.6363 12.8158 28.6363 11.292 28.6363 9.80464C28.6329 9.75208 28.6329 9.69936 28.6363 9.6468C28.6394 9.59625 28.6394 9.54557 28.6363 9.49503H26.3294V11.4802H22.365V9.49503H20.0338C20.0277 9.55153 20.0277 9.60851 20.0338 9.66501V9.82286C20.0338 11.3831 20.0338 12.9798 20.0338 14.5218C20.0338 16.167 20.0338 16.6041 20.0338 18.2372L17.4111 22.7843L19.0928 23.7557L21.1994 20.1131L23.3121 23.7557L24.3259 23.1486L25.3459 23.7557L27.4586 20.1131L29.5652 23.7557L31.2347 22.7843ZM24.3138 21.6309L22.365 18.2493V13.769H26.3415V18.1279L24.3138 21.6309Z" fill="#3351FF"/>
</g>
<defs>
<clipPath id="clip0_1244_2151">
<rect width="110.819" height="32" fill="white"/>
</clipPath>
</defs>
</svg>
